<svg width="24" height="24" viewBox="0 0 24 24" fill="none" xmlns="http://www.w3.org/2000/svg">
  <path d="M22.675 0H1.325C0.593 0 0 0.593 0 1.325V22.675C0 23.407 0.593 24 1.325 24H12.82V14.708H9.692V11.077H12.82V8.413C12.82 5.348 14.657 3.692 17.396 3.692C18.713 3.692 19.872 3.792 20.175 3.833V7.077H18.462C17.1 7.077 16.821 7.692 16.821 8.692V11.077H20.077L19.615 14.708H16.821V24H22.675C23.407 24 24 23.407 24 22.675V1.325C24 0.593 23.407 0 22.675 0Z" fill="#1877F2"/>
  <path d="M19.615 14.708L20.077 11.077H16.821V8.692C16.821 7.692 17.1 7.077 18.462 7.077H20.175V3.833C19.872 3.792 18.713 3.692 17.396 3.692C14.657 3.692 12.82 5.348 12.82 8.413V11.077H9.692V14.708H12.82V24H16.821V14.708H19.615Z" fill="white"/>
</svg>