<svg width="24" height="24" viewBox="0 0 24 24" fill="none" xmlns="http://www.w3.org/2000/svg">
  <path d="M12 2.163C6.513 2.163 2.163 6.513 2.163 12C2.163 17.487 6.513 21.837 12 21.837C17.487 21.837 21.837 17.487 21.837 12C21.837 6.513 17.487 2.163 12 2.163ZM12 19.837C7.588 19.837 4.163 16.412 4.163 12C4.163 7.588 7.588 4.163 12 4.163C16.412 4.163 19.837 7.588 19.837 12C19.837 16.412 16.412 19.837 12 19.837ZM18.163 6.163C17.588 6.163 17.163 5.738 17.163 5.163C17.163 4.588 17.588 4.163 18.163 4.163C18.738 4.163 19.163 4.588 19.163 5.163C19.163 5.738 18.738 6.163 18.163 6.163ZM12 7.163C9.238 7.163 7.163 9.238 7.163 12C7.163 14.762 9.238 16.837 12 16.837C14.762 16.837 16.837 14.762 16.837 12C16.837 9.238 14.762 7.163 12 7.163ZM12 14.837C10.588 14.837 9.163 13.412 9.163 12C9.163 10.588 10.588 9.163 12 9.163C13.412 9.163 14.837 10.588 14.837 12C14.837 13.412 13.412 14.837 12 14.837Z" fill="#E1306C"/>
</svg>