<svg width="24" height="24" viewBox="0 0 24 24" fill="none" xmlns="http://www.w3.org/2000/svg">
  <path d="M22.23 0H1.77C0.79 0 0 0.79 0 1.77V22.23C0 23.21 0.79 24 1.77 24H22.23C23.21 24 24 23.21 24 22.23V1.77C24 0.79 23.21 0 22.23 0ZM7.12 20.452H3.56V9.048H7.12V20.452ZM5.34 7.548C4.24 7.548 3.34 6.648 3.34 5.548C3.34 4.448 4.24 3.548 5.34 3.548C6.44 3.548 7.34 4.448 7.34 5.548C7.34 6.648 6.44 7.548 5.34 7.548ZM20.452 20.452H16.892V14.452C16.892 13.452 16.892 12.452 15.892 12.452C14.892 12.452 14.892 13.452 14.892 14.452V20.452H11.332V9.048H14.892V10.048C15.892 9.048 17.892 8.048 19.892 8.048C21.892 8.048 22.892 9.048 22.892 11.048V20.452H20.452Z" fill="#0077B5"/>
</svg>